<?xml version="1.0" encoding="UTF-8"?>
<svg width="20px" height="20px" viewBox="0 0 20 20" version="1.1" xmlns="http://www.w3.org/2000/svg" xmlns:xlink="http://www.w3.org/1999/xlink">
    <!-- Generator: Sketch 56.3 (81716) - https://sketch.com -->
    <title>收起、展开</title>
    <desc>Created with Sketch.</desc>
    <g id="页面-1" stroke="none" stroke-width="1" fill="none" fill-rule="evenodd">
        <g id="icons-下载" transform="translate(-129.000000, -30.000000)">
            <g id="收起、展开" transform="translate(139.000000, 40.000000) scale(-1, 1) translate(-139.000000, -40.000000) translate(129.000000, 30.000000)">
                <rect id="Rectangle-9" x="0" y="0" width="20" height="20"></rect>
                <path d="M2.1875,2.5 L17.8125,2.5 C18.330267,2.5 18.75,2.91973305 18.75,3.4375 C18.75,3.95526695 18.330267,4.375 17.8125,4.375 L2.1875,4.375 C1.66973305,4.375 1.25,3.95526695 1.25,3.4375 C1.25,2.91973305 1.66973305,2.5 2.1875,2.5 Z M2.1875,9.0625 L11.5625,9.0625 C12.080267,9.0625 12.5,9.48223305 12.5,10 C12.5,10.517767 12.080267,10.9375 11.5625,10.9375 L2.1875,10.9375 C1.66973305,10.9375 1.25,10.517767 1.25,10 C1.25,9.48223305 1.66973305,9.0625 2.1875,9.0625 Z M15.7863155,6.82539784 L18.9625237,9.70047407 C19.0904773,9.81629653 19.1003115,10.013916 18.984489,10.1418696 C18.9749963,10.1523566 18.9648025,10.1621869 18.953978,10.1712928 L15.6796699,12.9257273 C15.6136337,12.9812787 15.5150674,12.9727791 15.459516,12.9067429 C15.4352213,12.8778628 15.4222003,12.8411654 15.422859,12.8034313 L15.5252317,6.93851111 C15.5267378,6.85222976 15.5979035,6.78350581 15.6841849,6.78501185 C15.7219938,6.78567181 15.7582805,6.80002085 15.7863155,6.82539784 Z M2.1875,15.625 L17.8125,15.625 C18.330267,15.625 18.75,16.044733 18.75,16.5625 C18.75,17.080267 18.330267,17.5 17.8125,17.5 L2.1875,17.5 C1.66973305,17.5 1.25,17.080267 1.25,16.5625 C1.25,16.044733 1.66973305,15.625 2.1875,15.625 Z" id="形状结合" fill="#253444" fill-rule="nonzero" opacity="0.6"></path>
            </g>
        </g>
    </g>
</svg>