<?xml version="1.0" encoding="UTF-8"?>
<svg width="16px" height="16px" viewBox="0 0 16 16" version="1.1" xmlns="http://www.w3.org/2000/svg" xmlns:xlink="http://www.w3.org/1999/xlink">
    <!-- Generator: Sketch 56.3 (81716) - https://sketch.com -->
    <title>客户管理-选中</title>
    <desc>Created with Sketch.</desc>
    <g id="页面-1" stroke="none" stroke-width="1" fill="none" fill-rule="evenodd">
        <g id="icons-下载" transform="translate(-16.000000, -66.000000)" fill-rule="nonzero">
            <g id="客户管理-选中" transform="translate(16.000000, 66.000000)">
                <rect id="矩形" fill="#000000" opacity="0" x="0" y="0" width="16" height="16"></rect>
                <path d="M8.9875,9.90625 L7.2078125,9.146875 L7.2078125,8.2046875 C7.5546875,8.028125 7.696875,7.0203125 7.696875,7.0203125 C8.0953125,7.0375 8.0375,6.26875 8.04375,5.95 C8.05,5.63125 7.878125,5.69375 7.878125,5.69375 C7.96875,5.084375 7.9296875,4.61875 7.9296875,4.61875 C7.690625,3.115625 6.103125,3.1 6.103125,3.1 L6.1015625,3.271875 L6.1,3.1 C6.1,3.1 4.5125,3.1171875 4.2734375,4.61875 C4.2734375,4.61875 4.234375,5.0859375 4.325,5.69375 C4.325,5.69375 4.1546875,5.63125 4.159375,5.95 C4.165625,6.26875 4.1078125,7.0375 4.50625,7.0203125 C4.50625,7.0203125 4.6484375,8.028125 4.9953125,8.2046875 L4.9953125,9.146875 L3.21875,9.90625 C3.21875,9.90625 1.3421875,10.0390625 1.075,11.95 C1.075,11.95 0.7609375,13.053125 1.44375,13.053125 L10.7625,13.053125 C11.4453125,13.053125 11.13125,11.95 11.13125,11.95 C10.8640625,10.0390625 8.9875,9.90625 8.9875,9.90625 Z M14.8875,12.04375 C14.64375,10.296875 12.928125,10.1765625 12.928125,10.1765625 L11.3015625,9.48125 L11.3015625,8.6203125 C11.61875,8.459375 11.7484375,7.5375 11.7484375,7.5375 C12.1125,7.553125 12.0609375,6.85 12.065625,6.559375 C12.0703125,6.26875 11.915625,6.325 11.915625,6.325 C11.9984375,5.76875 11.9625,5.3421875 11.9625,5.3421875 C11.74375,3.96875 10.2921875,3.953125 10.2921875,3.953125 L10.290625,4.109375 L10.2890625,3.953125 C10.2890625,3.953125 8.8375,3.96875 8.6203125,5.3421875 C8.6203125,5.3421875 8.584375,5.76875 8.6671875,6.325 C8.6671875,6.325 8.5109375,6.2671875 8.5171875,6.559375 C8.521875,6.85 8.4703125,7.553125 8.834375,7.5375 C8.834375,7.5375 8.9640625,8.4578125 9.28125,8.6203125 L9.28125,9.48125 L9.2203125,9.5078125 C9.575,9.553125 11.3453125,9.875 11.6203125,11.8484375 C11.6203125,11.8484375 11.8890625,12.796875 11.4546875,13.053125 L14.55,13.053125 C15.1734375,13.053125 14.8875,12.04375 14.8875,12.04375 Z" id="形状" fill="#111111"></path>
            </g>
        </g>
    </g>
</svg>