<?xml version="1.0" encoding="UTF-8"?>
<svg width="16px" height="16px" viewBox="0 0 16 16" version="1.1" xmlns="http://www.w3.org/2000/svg" xmlns:xlink="http://www.w3.org/1999/xlink">
    <!-- Generator: Sketch 56.3 (81716) - https://sketch.com -->
    <title>监控报表</title>
    <desc>Created with Sketch.</desc>
    <g id="页面-1" stroke="none" stroke-width="1" fill="none" fill-rule="evenodd">
        <g id="icons-下载" transform="translate(-52.000000, -162.000000)" fill-rule="nonzero">
            <g id="监控报表" transform="translate(52.000000, 162.000000)">
                <rect id="矩形" fill="#000000" opacity="0" x="0" y="0" width="16" height="16"></rect>
                <path d="M13.3181818,9.18181819 L14.5,9.18181819 L14.5,14.5 L1.5,14.5 L1.5,9.18181819 L2.68181819,9.18181819 L2.68181819,2.68181819 L5.04545454,2.68181819 L5.04545454,1.5 L13.3181818,1.5 L13.3181818,9.18181819 Z M12.1363636,9.18181819 L12.1363636,2.68181819 L6.22727273,2.68181819 L6.22727273,9.18181819 L6.81818181,9.18181819 L6.81818181,10.3636364 L9.18181819,10.3636364 L9.18181819,9.18181819 L12.1363636,9.18181819 Z M5.04545454,9.18181819 L5.04545454,3.86363636 L3.86363636,3.86363636 L3.86363636,9.18181819 L5.04545454,9.18181819 Z M7.40909091,3.86363636 L10.9545455,3.86363636 L10.9545455,5.04545454 L7.40909091,5.04545454 L7.40909091,3.86363636 L7.40909091,3.86363636 Z M7.40909091,6.22727273 L10.9545455,6.22727273 L10.9545455,7.40909091 L7.40909091,7.40909091 L7.40909091,6.22727273 L7.40909091,6.22727273 Z" id="形状" fill="#253444" opacity="0.6"></path>
            </g>
        </g>
    </g>
</svg>