<?xml version="1.0" encoding="UTF-8"?>
<svg width="24px" height="24px" viewBox="0 0 24 24" version="1.1" xmlns="http://www.w3.org/2000/svg" xmlns:xlink="http://www.w3.org/1999/xlink">
    <!-- Generator: Sketch 56.3 (81716) - https://sketch.com -->
    <title>LOGO</title>
    <desc>Created with Sketch.</desc>
    <g id="页面-1" stroke="none" stroke-width="1" fill="none" fill-rule="evenodd">
        <g id="icons-下载" transform="translate(-14.000000, -246.000000)" fill="#FFFFFF" fill-rule="nonzero">
            <path d="M37.8329261,260.608959 L37.8329261,260.609436 L37.8367261,260.625159 L37.830551,260.618647 C36.7567126,266.037979 31.8338714,270 25.9972701,270 C22.5547171,270 19.4419792,268.55619 17.2757771,266.225701 C17.255985,266.204261 17.2360346,266.183297 17.2164009,266.162015 C17.1646248,266.105476 17.1139571,266.048143 17.0634478,265.990651 C17.0389056,265.963176 17.0159468,265.934271 16.9917213,265.906636 C17.09179,265.953805 22.2127102,268.348615 25.9961617,266.705806 L25.9950534,266.704853 C25.9955284,266.70533 25.9966367,266.705648 25.9972701,266.705806 C25.9975868,266.705806 25.9980618,266.705648 25.9980618,266.705648 L25.9983784,266.705648 C26.0311541,266.702312 26.0694715,266.68246 26.1112724,266.649585 C26.9610646,266.225383 31.2477096,263.980656 32.2776887,261.352067 C33.327935,258.670432 33.5337725,255.250932 33.5686065,253.601135 C36.6598107,255.818546 37.7110069,260.075332 37.8256426,260.575767 C37.8270676,260.584025 37.8278593,260.589425 37.8278593,260.589425 L37.830076,260.595301 C37.8308677,260.599589 37.832451,260.605624 37.8329261,260.608959 Z M25.0618653,266.214266 C21.3609072,267.58502 17.0801206,265.940623 16.9911355,265.90616 C15.1316312,263.78674 14,261.009021 14,257.963535 C14,252.088874 18.1967099,247.267015 23.7456137,246.215801 C23.8255737,246.200872 23.9060086,246.18642 23.9864436,246.172762 C24.0485115,246.16228 24.1104211,246.150686 24.172964,246.141316 C24.3281338,246.117176 24.4845703,246.097006 24.6417985,246.078901 C24.6557321,246.077471 24.6698241,246.074771 24.683916,246.073342 C24.683916,246.073342 24.681541,246.074612 24.6809076,246.074771 L24.6812243,246.074771 C24.6196314,246.104947 19.5183449,248.618711 18.4253478,252.622025 L18.4239228,252.622025 C18.4239228,252.622025 18.419331,252.781478 18.419806,253.06322 C18.4147393,253.139452 18.4126809,253.256024 18.4228144,253.421989 C18.4465649,254.992218 18.6273852,258.570377 19.7172156,261.352067 C20.5495908,263.47641 23.5079506,265.349504 25.0618653,266.214266 Z M37.6698869,255.16822 C38.299908,257.234436 37.8339236,260.621855 37.8367736,260.625191 C37.8367736,260.625191 37.0498411,254.925864 33.5764125,252.625551 L33.5764125,252.622057 L33.5710291,252.622057 L33.5708707,252.622057 C27.337003,252.619833 26.166896,249.584989 26.0213847,248.95623 C26.0125179,248.927325 26.003651,248.899214 25.9960509,248.873645 C25.9960509,248.873645 25.2634277,252.301563 19.2764067,252.600934 C20.378904,248.609214 24.6324567,246.103708 24.6816993,246.074644 C25.1194998,246.026205 25.5637921,246 26.0145763,246 C31.6562653,246 36.0893716,249.987909 37.6698869,255.16822 Z M33.2028174,253.614555 C33.2070925,253.521806 33.2070925,253.447479 33.2048758,253.390464 C33.2063433,253.092839 33.2012341,252.923381 33.2012341,252.923381 C27.607521,252.921158 26.3004529,250.423434 26.0542396,249.638717 L26.0542396,266.292007 C26.7244781,265.96119 30.9686889,263.785231 31.9714342,261.227316 C33.0240555,258.539646 33.1850837,255.070436 33.2028174,253.614555 Z M20.0238343,261.227316 C21.0245212,263.782213 25.2597068,265.955632 25.9377039,266.290737 L25.9377039,249.621723 C25.6735985,250.340531 24.3394549,252.923381 18.7934011,252.923381 C18.7934011,252.923381 18.789126,253.075211 18.7892843,253.342818 C18.7845342,253.415557 18.7827925,253.52657 18.7926094,253.684276 C18.8150932,255.178114 18.9870467,258.581415 20.0238343,261.227316 Z M33.4300304,252.71803 C33.4300304,252.71803 33.4350971,252.892571 33.4339888,253.199882 C33.4358888,253.258645 33.4363638,253.335989 33.4317721,253.431756 C33.41293,254.933694 33.2469933,258.512488 32.1606464,261.285602 C31.0912414,264.015358 26.4416891,266.324247 25.9973967,266.539763 C25.5529461,266.324247 20.9037104,264.015358 19.8339888,261.285602 C18.7645838,258.555846 18.5870886,255.044231 18.5638131,253.503224 C18.5536796,253.340436 18.5557379,253.225929 18.5608047,253.151125 C18.5603297,252.874783 18.5649215,252.71803 18.5649215,252.71803 C25.2104642,252.71803 25.9961301,249.039657 25.9961301,249.039657 C26.0034135,249.06475 26.0122804,249.092384 26.0208306,249.120813 C26.1636501,249.73766 27.3119067,252.716124 33.429872,252.71803 L33.4300304,252.71803 Z" id="LOGO"></path>
        </g>
    </g>
</svg>