<?xml version="1.0" encoding="UTF-8"?>
<svg width="16px" height="16px" viewBox="0 0 16 16" version="1.1" xmlns="http://www.w3.org/2000/svg" xmlns:xlink="http://www.w3.org/1999/xlink">
    <!-- Generator: Sketch 56.3 (81716) - https://sketch.com -->
    <title>数据源管理-选中</title>
    <desc>Created with Sketch.</desc>
    <g id="页面-1" stroke="none" stroke-width="1" fill="none" fill-rule="evenodd">
        <g id="icons-下载" transform="translate(-16.000000, -130.000000)" fill-rule="nonzero">
            <g id="数据源管理-选中" transform="translate(16.000000, 130.000000)">
                <rect id="矩形" fill="#000000" opacity="0" x="0" y="0" width="16" height="16"></rect>
                <path d="M8.5,10 L14,10 L14,14 L8.5,14 L8.5,10 Z M9.5,11 L9.5,13 L13,13 L13,11 L9.5,11 Z M2,2 L7.5,2 L7.5,6 L2,6 L2,2 Z M2,7 L7.5,7 L7.5,14 L2,14 L2,7 Z M8.5,2 L14,2 L14,9 L8.5,9 L8.5,2 Z" id="形状" fill="#111111"></path>
            </g>
        </g>
    </g>
</svg>