<?xml version="1.0" encoding="UTF-8"?>
<svg width="16px" height="16px" viewBox="0 0 16 16" version="1.1" xmlns="http://www.w3.org/2000/svg" xmlns:xlink="http://www.w3.org/1999/xlink">
    <!-- Generator: Sketch 56.3 (81716) - https://sketch.com -->
    <title>未展开</title>
    <desc>Created with Sketch.</desc>
    <g id="页面-1" stroke="none" stroke-width="1" fill="none" fill-rule="evenodd" opacity="0.6">
        <g id="icons-下载" transform="translate(-208.000000, -34.000000)" fill-rule="nonzero">
            <g id="未展开" transform="translate(216.000000, 42.000000) scale(1, -1) rotate(-180.000000) translate(-216.000000, -42.000000) translate(208.000000, 34.000000)">
                <rect id="矩形" fill="#000000" opacity="0" x="0" y="0" width="16" height="16"></rect>
                <path d="M12.8908026,6.09092764 L11.9274026,5.17856679 C11.7874624,5.04559504 11.566842,5.04518076 11.4342959,5.17730027 L7.43259933,8.8859974 C7.3001485,9.01761978 7.30660196,9.23225183 7.44663741,9.36472644 L8.40973979,10.2773832 C8.54978714,10.4103549 8.77059807,10.4106627 8.90284649,10.2790403 L12.9046383,6.56995258 C13.036982,6.43814083 13.0308381,6.22369815 12.8908026,6.09092764 Z M4.06824805,5.10407941 L3.10713409,6.03818399 C2.96749157,6.17390181 2.96388382,6.39060527 3.09910894,6.52183704 L7.77827651,10.9035601 C7.91370404,11.035289 8.13670581,11.0314066 8.27633643,10.8959847 L9.23745038,9.96208133 C9.3770929,9.82625698 9.38070065,9.60966005 9.24527312,9.47812053 L4.5662127,5.09659872 C4.43078518,4.96486981 4.2077834,4.96834976 4.06824805,5.10407941 Z" id="形状" fill="#253444"></path>
            </g>
        </g>
    </g>
</svg>