<?xml version="1.0" encoding="UTF-8"?>
<svg width="16px" height="16px" viewBox="0 0 16 16" version="1.1" xmlns="http://www.w3.org/2000/svg" xmlns:xlink="http://www.w3.org/1999/xlink">
    <!-- Generator: Sketch 56.3 (81716) - https://sketch.com -->
    <title>清空</title>
    <desc>Created with Sketch.</desc>
    <g id="页面-1" stroke="none" stroke-width="1" fill="none" fill-rule="evenodd" opacity="0.2">
        <g id="icons-下载" transform="translate(-208.000000, -74.000000)" fill="#252644" fill-rule="nonzero">
            <g id="清空" transform="translate(208.000000, 74.000000)">
                <rect id="矩形" opacity="0" x="0" y="0" width="16" height="16"></rect>
                <path d="M8.72243019,8.01088862 L8.72243019,8.01088862 L8.36120309,7.64966153 L8.72243019,8.01088862 L8.72243019,8.01088862 Z M7.999992,1.01286528 C4.14083252,1.01286528 1.01264942,4.14063266 1.01264942,7.99979214 C1.01264942,11.8589516 4.14083252,14.9871347 7.999992,14.9871347 C11.8591515,14.9871347 14.9873346,11.8589356 14.9873346,7.99979214 C14.9873346,4.14064864 11.8591515,1.01286528 7.999992,1.01286528 L7.999992,1.01286528 Z M11.6109358,10.8993782 L10.8889293,11.6218324 L8.00042372,8.73289509 L5.11148641,11.6218324 L4.38946394,10.8993782 L7.27840123,8.01088861 L4.38946394,5.12236703 L5.11148641,4.39989686 L8.36121909,7.64964553 L8.0004397,7.28885016 L10.8889293,4.39989686 L11.6109358,5.12236703 L8.72243019,8.01088863 L11.6109358,10.8993782 L11.6109358,10.8993782 Z" id="形状"></path>
            </g>
        </g>
    </g>
</svg>